# xmcd CD database file
#
# Track frame offsets:
#	150
#	15697
#	34816
#	48700
#	63981
#	78862
#	99214
#	118096
#	131309
#	147129
#	158862
#
# Disc length: 2358 seconds
#
# Revision: 0
# Processed by: cddbd v1.5.1PL0 Copyright (c) Steve Scherf et al.
# Submitted via: CDex 1.51
#
DISCID=8809340b
DTITLE=Darlin' and Rose - Darlin' and Rose
DYEAR=2000
DGENRE=Country
TTITLE0=Honky Tonk Eyes
TTITLE1=I'll Be Only Yours
TTITLE2=Memories
TTITLE3=My Name Is Rose
TTITLE4=Hotel Room In Dallas
TTITLE5=Million Dollar Smile
TTITLE6=She Started Drinkin'
TTITLE7=Two Dimes And A Quarter
TTITLE8=Your Favorite Song
TTITLE9=Streets Of My Mind
TTITLE10=My Tears Have Gone To Pain
EXTD=YEAR: 2000
EXTT0=
EXTT1=
EXTT2=
EXTT3=
EXTT4=
EXTT5=
EXTT6=
EXTT7=
EXTT8=
EXTT9=
EXTT10=
PLAYORDER=
